<svg xmlns="http://www.w3.org/2000/svg" viewBox="0 0 32 32" width="32" height="32">
<defs>
<linearGradient id="g" x1="0%" y1="0%" x2="100%" y2="100%">
<stop offset="0%" stop-color="rgb(232, 106, 41)"/><stop offset="100%" stop-color="rgb(223, 80, 59)"/>
</linearGradient>
</defs>
<rect x="0" y="0" width="32" height="32" rx="6" ry="6" fill="url(#g)"/>

<g fill="#FFFFFF" stroke="none">
<path d="M 21 9 L 17 13 L 18 14 L 23 9 Z"/>
<path d="M 10 8 L 9 9 L 8 9 L 8 11 L 9 12 L 9 13 L 12 13 L 14 15 L 14 16 L 12 18 L 10 18 L 9 19 L 8 19 L 8 21 L 9 22 L 9 23 L 11 23 L 12 22 L 13 22 L 13 19 L 15 17 L 16 17 L 21 22 L 23 22 L 13 12 L 13 10 L 12 9 L 12 8 Z"/>
</g></svg>